<?xml version="1.0" standalone="no"?>
<!DOCTYPE svg PUBLIC "-//W3C//DTD SVG 20010904//EN"
 "http://www.w3.org/TR/2001/REC-SVG-20010904/DTD/svg10.dtd">
<svg version="1.0" xmlns="http://www.w3.org/2000/svg"
 width="131.000000pt" height="170.000000pt" viewBox="0 0 131.000000 170.000000"
 preserveAspectRatio="xMidYMid meet">
<metadata>
Created by potrace 1.10, written by Peter Selinger 2001-2011
</metadata>
<g transform="translate(0.000000,170.000000) scale(0.100000,-0.100000)"
fill="#000000" stroke="none">
<path d="M710 1625 c-162 -46 -269 -181 -278 -351 l-4 -81 -36 8 c-42 9 -85 2
-128 -21 -29 -17 -31 -17 -53 1 -28 23 -86 25 -95 4 -3 -8 -11 -15 -17 -15 -8
0 -6 7 4 18 23 25 21 39 -5 46 -33 8 -43 -8 -29 -43 10 -23 10 -34 1 -51 -7
-13 -10 -37 -7 -55 7 -44 98 -205 128 -226 14 -10 47 -19 79 -21 l55 -3 3 40
c6 84 4 116 -9 131 -11 14 -10 18 6 30 21 15 91 19 99 5 3 -4 6 -140 7 -302 1
-162 3 -364 6 -449 l6 -156 90 -46 c50 -26 91 -46 92 -45 0 1 -2 205 -5 453
l-5 451 26 -20 c35 -25 122 -44 184 -40 143 10 266 96 327 229 18 40 23 67 23
144 0 88 -3 101 -33 162 -80 162 -265 249 -432 203z m190 -31 c68 -20 115 -50
164 -104 63 -70 81 -120 81 -230 0 -85 -3 -101 -29 -153 -86 -168 -294 -240
-463 -159 -32 15 -33 18 -33 76 0 34 -3 79 -6 101 l-7 40 31 -41 c57 -78 187
-102 274 -51 77 45 113 115 106 207 -6 80 -43 135 -118 173 -47 24 -64 28
-111 24 -90 -8 -166 -66 -190 -146 -7 -24 -9 -233 -7 -639 2 -331 1 -602 -2
-602 -3 0 -34 15 -67 33 l-62 33 -1 585 c-1 577 0 587 21 645 32 87 124 175
210 203 78 24 139 26 209 5z m-73 -140 c13 -4 20 -11 17 -16 -3 -5 3 -16 15
-24 12 -8 21 -21 21 -28 0 -6 5 -17 12 -24 16 -16 19 -42 3 -36 -18 7 -14 -34
5 -47 13 -9 13 -10 0 -8 -27 3 -40 -1 -40 -11 0 -5 10 -9 21 -7 16 1 22 -4 24
-20 1 -19 -3 -23 -27 -23 -23 0 -27 4 -25 22 2 19 -3 22 -35 23 -28 1 -38 -3
-38 -14 0 -11 3 -12 12 -3 9 9 14 7 24 -6 17 -21 18 -40 2 -24 -7 7 -17 12
-22 12 -6 0 -4 -5 4 -11 11 -8 12 -12 2 -16 -6 -2 -10 -9 -6 -14 3 -5 0 -9 -5
-9 -6 0 -11 7 -11 16 0 8 -5 12 -10 9 -7 -4 -9 2 -5 17 3 12 7 33 8 46 1 15 6
21 16 17 11 -4 11 -3 2 9 -9 10 -9 20 -2 34 7 14 7 19 -4 19 -7 0 -11 -6 -8
-14 4 -9 0 -11 -11 -7 -9 3 -13 11 -9 18 3 6 3 8 -2 4 -11 -11 -49 52 -47 77
2 17 0 16 -12 -5 -9 -14 -15 -32 -16 -41 0 -10 -11 -19 -25 -21 l-24 -5 19 26
c47 64 57 72 89 76 19 2 36 7 39 10 7 7 21 6 49 -1z m71 -34 c7 -11 19 -20 27
-20 14 0 41 -38 33 -46 -3 -2 -26 16 -53 41 -26 25 -41 45 -34 45 8 0 20 -9
27 -20z m32 -82 c0 -4 7 -8 15 -8 9 0 15 -9 15 -25 0 -19 -5 -25 -21 -25 -17
0 -20 4 -15 24 4 16 -1 32 -14 49 -26 33 -26 47 0 17 11 -13 20 -27 20 -32z
m-223 10 c-3 -7 -5 -2 -5 12 0 14 2 19 5 13 2 -7 2 -19 0 -25z m281 -49 c-3
-33 -4 -33 -8 8 -3 23 -2 39 3 34 5 -5 7 -24 5 -42z m-316 1 c-2 -17 -10 -30
-18 -30 -9 0 -14 11 -14 30 0 22 5 30 18 30 15 0 18 -6 14 -30z m78 1 c14 -27
14 -26 -22 -25 -26 1 -34 6 -36 22 -3 18 2 22 22 22 15 0 30 -8 36 -19z m-133
-23 c-3 -8 -6 -5 -6 6 -1 11 2 17 5 13 3 -3 4 -12 1 -19z m0 -55 c-3 -10 -5
-4 -5 12 0 17 2 24 5 18 2 -7 2 -21 0 -30z m55 5 c4 -22 1 -28 -14 -28 -13 0
-18 8 -18 28 0 18 5 29 14 29 8 0 16 -13 18 -29z m78 5 c0 -19 -5 -23 -28 -23
-22 0 -28 5 -30 24 -1 21 2 25 28 24 25 -1 30 -5 30 -25z m212 -4 c-6 -38 -36
-36 -40 4 -3 23 0 27 21 27 21 0 23 -4 19 -31z m32 6 c-3 -14 -7 -36 -8 -49 0
-14 -4 -22 -7 -18 -9 11 2 92 12 92 5 0 7 -11 3 -25z m-159 5 c3 -5 1 -10 -4
-10 -6 0 -11 5 -11 10 0 6 2 10 4 10 3 0 8 -4 11 -10z m-744 -43 c-10 -9 -11
-8 -5 6 3 10 9 15 12 12 3 -3 0 -11 -7 -18z m539 -12 c0 -8 -4 -15 -8 -15 -5
0 -9 7 -9 15 0 8 4 15 9 15 4 0 8 -7 8 -15z m325 -23 c-3 -8 -5 -18 -5 -23 0
-5 -6 -9 -14 -9 -8 0 -15 13 -18 33 -3 31 -2 32 19 23 13 -6 21 -17 18 -24z
m-203 3 c5 -22 2 -25 -23 -25 -24 0 -29 4 -29 25 0 20 5 25 24 25 17 0 25 -7
28 -25z m148 0 c0 -23 -4 -25 -43 -25 -24 0 -48 -5 -54 -11 -14 -14 -33 -3
-32 19 1 15 2 15 6 0 2 -10 9 -18 14 -18 6 0 7 5 3 12 -4 7 -3 8 4 4 8 -4 12
0 12 12 0 27 8 32 52 32 34 0 38 -3 38 -25z m-707 -7 c14 -13 44 -58 67 -100
l41 -78 -25 0 c-14 0 -31 -6 -38 -14 -11 -11 -21 1 -61 72 -26 47 -53 92 -59
100 -10 11 -8 17 7 28 26 19 40 18 68 -8z m228 6 c5 -3 9 -25 9 -49 l0 -43
-40 5 c-29 4 -48 0 -75 -16 -20 -11 -33 -16 -30 -11 4 6 -3 27 -14 46 -24 41
-21 50 23 70 29 13 104 12 127 -2z m261 -9 c6 -29 -9 -33 -28 -7 -18 24 -17
32 5 32 12 0 20 -9 23 -25z m-570 -44 c-1 -7 4 -19 13 -27 17 -18 20 -34 5
-34 -5 0 -10 -5 -10 -11 0 -5 4 -8 9 -5 12 8 41 -4 41 -16 0 -5 11 -25 25 -45
18 -27 22 -40 14 -49 -6 -7 -7 -19 -3 -25 5 -8 3 -9 -6 -4 -10 6 -12 4 -7 -9
4 -11 3 -15 -4 -11 -6 4 -8 13 -5 20 2 7 -2 16 -10 19 -9 3 -12 10 -9 16 3 5
3 10 -2 10 -4 0 -14 14 -22 30 -11 26 -11 33 0 48 10 13 8 12 -9 -2 -19 -17
-22 -17 -16 -3 3 10 1 17 -5 17 -6 0 -11 7 -11 16 0 8 -3 13 -8 10 -4 -2 -7
10 -6 27 2 47 3 49 17 44 6 -2 11 -10 9 -16z m677 -17 c20 -25 26 -21 22 14
-1 8 12 12 39 12 55 0 52 -28 -5 -44 -48 -14 -135 5 -135 30 0 25 56 17 79
-12z m123 -6 c-8 -8 -9 -4 -5 13 4 13 8 18 11 10 2 -7 -1 -18 -6 -23z m-607
-153 c0 -13 -7 -20 -20 -20 -13 0 -21 -8 -23 -22 -5 -32 -38 -30 -45 2 -2 14
-2 24 0 21 2 -2 15 7 29 21 28 28 59 27 59 -2z m-4 -73 c-7 -2 -18 1 -23 6 -8
8 -4 9 13 5 13 -4 18 -8 10 -11z"/>
<path d="M972 1515 c15 -16 20 -17 30 -6 11 11 10 13 0 7 -7 -4 -21 -2 -30 5
-15 12 -15 11 0 -6z"/>
<path d="M1051 1093 c-1 -17 16 -25 25 -12 4 7 3 9 -4 5 -5 -3 -13 0 -15 6 -4
9 -6 10 -6 1z"/>
<path d="M647 1059 c7 -7 15 -10 18 -7 3 3 -2 9 -12 12 -14 6 -15 5 -6 -5z"/>
<path d="M953 983 c0 -9 4 -10 14 -2 7 6 13 12 13 14 0 1 -6 2 -13 2 -8 0 -14
-6 -14 -14z"/>
<path d="M770 1440 c-11 -8 -7 -9 15 -4 37 8 45 14 19 14 -10 0 -26 -5 -34
-10z"/>
<path d="M166 1137 c3 -10 9 -15 12 -12 3 3 0 11 -7 18 -10 9 -11 8 -5 -6z"/>
<path d="M190 1100 c-9 -6 -10 -10 -3 -10 6 0 15 5 18 10 8 12 4 12 -15 0z"/>
<path d="M220 1041 c0 -6 4 -13 10 -16 6 -3 7 1 4 9 -7 18 -14 21 -14 7z"/>
<path d="M90 1109 c0 -5 5 -7 10 -4 6 3 10 8 10 11 0 2 -4 4 -10 4 -5 0 -10
-5 -10 -11z"/>
<path d="M150 996 c0 -3 9 -15 20 -26 11 -11 18 -25 16 -32 -1 -7 -1 -10 1 -5
3 4 10 4 16 0 6 -4 1 8 -11 25 -23 31 -42 49 -42 38z"/>
<path d="M22 1145 c0 -16 2 -22 5 -12 2 9 2 23 0 30 -3 6 -5 -1 -5 -18z"/>
</g>
</svg>
