<?xml version="1.0" standalone="no"?>
<!DOCTYPE svg PUBLIC "-//W3C//DTD SVG 20010904//EN"
 "http://www.w3.org/TR/2001/REC-SVG-20010904/DTD/svg10.dtd">
<svg version="1.0" xmlns="http://www.w3.org/2000/svg"
 width="131.000000pt" height="170.000000pt" viewBox="0 0 131.000000 170.000000"
 preserveAspectRatio="xMidYMid meet">

<g transform="translate(0.000000,170.000000) scale(0.100000,-0.100000)"
fill="#000000" stroke="none">
<path d="M730 1629 c-71 -14 -143 -55 -195 -111 -68 -74 -96 -141 -103 -244
-2 -46 -9 -81 -14 -78 -21 13 -117 4 -149 -14 -34 -19 -36 -19 -58 -1 -13 11
-36 19 -52 19 -16 0 -38 9 -50 21 -25 25 -45 20 -41 -12 2 -13 3 -35 2 -49 -4
-102 -3 -104 50 -198 29 -51 62 -99 74 -107 11 -7 46 -15 76 -17 53 -3 55 -2
53 22 -1 14 3 39 8 57 8 24 6 41 -6 69 -15 36 -15 39 2 52 10 7 36 12 58 10
l40 -3 6 -285 c3 -157 7 -362 8 -455 l1 -171 85 -42 c47 -23 87 -42 90 -42 3
0 5 198 5 440 0 242 1 440 3 440 1 0 26 -9 55 -20 64 -24 167 -26 239 -5 163
48 274 214 260 387 -14 168 -139 306 -306 338 -61 11 -78 11 -141 -1z m223
-54 c73 -34 149 -117 177 -193 32 -84 26 -196 -14 -275 -84 -166 -279 -237
-448 -165 -27 11 -48 21 -48 22 -6 34 -11 176 -6 176 4 0 22 -14 39 -31 41
-42 89 -61 151 -61 131 -1 227 106 213 238 -20 198 -276 260 -392 96 l-30 -44
0 -624 c0 -343 -3 -624 -8 -624 -4 0 -35 14 -68 31 l-60 31 3 607 3 606 27 50
c28 54 106 133 156 159 85 44 215 44 305 1z m-271 -200 c-2 -14 -11 -25 -18
-25 -17 0 -18 22 -2 38 19 19 26 14 20 -13z m265 10 c9 -25 -2 -27 -22 -5 -17
18 -17 20 -1 20 9 0 19 -7 23 -15z m-272 -72 c-2 -10 -4 -24 -4 -30 -1 -7 -8
-13 -16 -13 -10 0 -15 10 -15 30 0 23 5 30 19 30 13 0 18 -6 16 -17z m285 -8
c0 -18 -5 -25 -20 -25 -21 0 -24 8 -14 34 10 25 34 19 34 -9z m-211 -4 c9 -16
6 -20 -15 -25 -31 -8 -44 -1 -44 25 0 26 46 26 59 0z m238 -13 c-3 -7 -5 -2
-5 12 0 14 2 19 5 13 2 -7 2 -19 0 -25z m-317 -42 c0 -8 3 -21 6 -30 4 -12 0
-16 -15 -16 -17 0 -21 6 -21 30 0 20 5 30 15 30 8 0 15 -6 15 -14z m80 -11 c0
-21 -5 -25 -30 -25 -22 0 -30 5 -30 18 0 25 9 32 37 32 18 0 23 -5 23 -25z
m151 12 c-1 -4 -1 -14 -1 -22 0 -9 -9 -15 -25 -15 -29 0 -32 12 -9 35 16 15
36 17 35 2z m59 -17 c0 -32 -26 -43 -36 -15 -9 21 3 45 21 45 10 0 15 -10 15
-30z m27 -12 c-3 -7 -5 -2 -5 12 0 14 2 19 5 13 2 -7 2 -19 0 -25z m-235 -53
c5 -22 2 -25 -23 -25 -24 0 -29 4 -29 25 0 20 5 25 24 25 17 0 25 -7 28 -25z
m148 0 c0 -22 -4 -25 -39 -25 -42 0 -57 11 -47 35 3 10 20 15 46 15 36 0 40
-2 40 -25z m-709 -4 c13 -10 43 -55 67 -99 l42 -80 -27 -4 c-16 -3 -34 -7 -42
-9 -9 -2 -24 13 -39 41 -13 25 -38 67 -54 95 -28 46 -29 50 -12 62 24 18 37
16 65 -6z m213 9 c23 -8 26 -15 26 -54 l0 -45 -33 6 c-19 3 -48 -1 -68 -10
l-35 -14 -22 39 c-26 44 -23 54 22 74 37 16 75 18 110 4z m276 -15 c0 -29 -15
-33 -29 -6 -11 20 -5 31 16 31 7 0 13 -11 13 -25z m276 9 c-3 -9 -6 -20 -6
-25 0 -5 -7 -9 -15 -9 -9 0 -15 9 -15 25 0 19 5 25 21 25 15 0 19 -4 15 -16z
m-173 -62 c21 -23 12 -34 -22 -25 -29 7 -51 21 -51 34 0 17 57 9 73 -9z m105
1 c-3 -17 -54 -37 -70 -27 -4 3 -8 14 -8 25 0 16 7 19 41 19 32 0 40 -3 37
-17z m-583 -168 c0 -13 -7 -20 -20 -20 -13 0 -21 -8 -23 -22 -2 -15 -10 -23
-23 -23 -28 0 -24 36 6 66 29 29 60 28 60 -1z"/>
</g>
</svg>
